<?xml version="1.0" encoding="utf-8"?>
<!-- Generator: Adobe Illustrator 27.9.0, SVG Export Plug-In . SVG Version: 6.00 Build 0)  -->
<svg version="1.1" id="Ebene_1" xmlns="http://www.w3.org/2000/svg" xmlns:xlink="http://www.w3.org/1999/xlink" x="0px" y="0px"
	 viewBox="0 0 700.9 254.9" style="enable-background:new 0 0 700.9 254.9;" xml:space="preserve">
<style type="text/css">
	.st0{fill:#FFFFFF;}
	.st1{fill:url(#SVGID_1_);}
	.st2{fill:url(#SVGID_00000107580978150076125140000013748283871517919390_);}
	.st3{fill:url(#SVGID_00000014634986292451792490000005964793062246639749_);}
	.st4{fill:url(#SVGID_00000178192606164253974060000017986139420766864558_);}
	.st5{fill:url(#SVGID_00000144317022158599252320000008435937575726698389_);}
	.st6{fill:url(#SVGID_00000032629491377575743050000007126054116786527114_);}
	.st7{fill:url(#SVGID_00000093171692819115769690000012826810773630431619_);}
</style>
<g>
	<g>
		<linearGradient id="SVGID_1_" gradientUnits="userSpaceOnUse" x1="136.9664" y1="31.8432" x2="136.9664" y2="181.7558">
			<stop  offset="0" style="stop-color:#FF00FF"/>
			<stop  offset="1" style="stop-color:#662D91"/>
		</linearGradient>
		<path class="st1" d="M46,205.1c19.3,18.6,45.6,30,74.5,30c57.9,0,105.2-45.8,107.5-103.2C172.3,183.5,119.3,193.7,46,205.1z"/>
		
			<linearGradient id="SVGID_00000176038971816569874910000006223786986396391565_" gradientUnits="userSpaceOnUse" x1="131.901" y1="31.8432" x2="131.901" y2="181.7558">
			<stop  offset="0" style="stop-color:#FF00FF"/>
			<stop  offset="1" style="stop-color:#662D91"/>
		</linearGradient>
		<path style="fill:url(#SVGID_00000176038971816569874910000006223786986396391565_);" d="M225.4,103.8
			c-3.7-16.5-11.2-31.5-21.5-44.2C169.7,126.4,115,159.1,38.4,197c2.1,2.5,4.4,5,6.8,7.3C73.1,196.9,154.7,179.3,225.4,103.8z"/>
		
			<linearGradient id="SVGID_00000156557060745411656240000012619879005302217116_" gradientUnits="userSpaceOnUse" x1="96.0328" y1="31.8432" x2="96.0328" y2="181.7558">
			<stop  offset="0" style="stop-color:#FF00FF"/>
			<stop  offset="1" style="stop-color:#662D91"/>
		</linearGradient>
		<path style="fill:url(#SVGID_00000156557060745411656240000012619879005302217116_);" d="M179.2,37.3c-16.9-11-37-17.5-58.7-17.5
			C61,19.9,12.9,68,12.9,127.5c0,26.3,9.5,50.4,25.1,69.1C59,183.4,140.6,127.6,179.2,37.3z"/>
	</g>
	<g>
		
			<linearGradient id="SVGID_00000045578656969427778870000015186211558719578299_" gradientUnits="userSpaceOnUse" x1="301.0157" y1="31.8432" x2="301.0157" y2="181.7558">
			<stop  offset="0" style="stop-color:#FF00FF"/>
			<stop  offset="1" style="stop-color:#662D91"/>
		</linearGradient>
		<path style="fill:url(#SVGID_00000045578656969427778870000015186211558719578299_);" d="M263.9,192.4h-27.2l27.6-132H323
			c10.1,0,17.9,1,23.5,3.1c5.6,2.1,10.1,5.9,13.6,11.4c3.5,5.5,5.2,12.2,5.2,20.1c0,11.2-3.4,20.5-10.1,27.8
			c-6.7,7.3-16.9,11.8-30.5,13.6c3.5,3.1,6.8,7.2,9.8,12.3c6.1,10.3,12.8,24.9,20.3,43.8h-29.2c-2.3-7.4-6.9-19.1-13.8-34.8
			c-3.7-8.5-7.7-14.3-11.9-17.2c-2.6-1.7-7.1-2.6-13.5-2.6h-11.1L263.9,192.4z M279.5,117.9h14.4c14.6,0,24.3-0.9,29-2.6
			c4.8-1.7,8.5-4.5,11.2-8.2c2.7-3.7,4.1-7.6,4.1-11.7c0-4.8-2-8.4-5.9-10.8c-2.4-1.4-7.6-2.2-15.6-2.2h-29.9L279.5,117.9z"/>
		
			<linearGradient id="SVGID_00000145741562596905226250000015650975458875074193_" gradientUnits="userSpaceOnUse" x1="430.9327" y1="31.8432" x2="430.9327" y2="181.7558">
			<stop  offset="0" style="stop-color:#FF00FF"/>
			<stop  offset="1" style="stop-color:#662D91"/>
		</linearGradient>
		<path style="fill:url(#SVGID_00000145741562596905226250000015650975458875074193_);" d="M369.2,192.4l27.6-132h45.1
			c9.8,0,16.6,0.3,20.5,0.9c6.5,0.9,12,2.7,16.5,5.4c4.5,2.7,7.9,6.3,10.3,10.8s3.5,9.5,3.5,14.9c0,7.3-2,13.7-6.1,19
			c-4.1,5.4-10.4,9.4-18.9,12.2c6.8,1.9,12.1,5.2,15.9,9.9c3.8,4.8,5.7,10.2,5.7,16.2c0,7.9-2.3,15.4-6.8,22.6
			c-4.5,7.1-10.7,12.2-18.6,15.3c-7.9,3.1-18.8,4.7-32.5,4.7H369.2z M400.8,171.2H427c11,0,18.4-0.7,22.1-2.1c3.7-1.4,6.8-3.7,9-7
			c2.2-3.2,3.4-6.7,3.4-10.3c0-4.4-1.6-8-4.9-10.8c-3.2-2.8-8.6-4.3-16.2-4.3H408L400.8,171.2z M412.7,113.7h20.7
			c9.3,0,16-0.7,20.1-2c4.1-1.3,7.1-3.5,9.2-6.5c2-3,3.1-6.2,3.1-9.6c0-3.4-1-6.1-2.9-8.3c-1.9-2.2-4.7-3.6-8.2-4.3
			c-2-0.4-6.8-0.5-14.3-0.5h-21.1L412.7,113.7z"/>
		
			<linearGradient id="SVGID_00000021120333060942933580000009769002188455185058_" gradientUnits="userSpaceOnUse" x1="528.7081" y1="31.8432" x2="528.7081" y2="181.7558">
			<stop  offset="0" style="stop-color:#FF00FF"/>
			<stop  offset="1" style="stop-color:#662D91"/>
		</linearGradient>
		<path style="fill:url(#SVGID_00000021120333060942933580000009769002188455185058_);" d="M501.3,192.4l27.6-132h27.1l-27.5,132
			H501.3z"/>
		
			<linearGradient id="SVGID_00000179620976161424993940000006754349525285059210_" gradientUnits="userSpaceOnUse" x1="628.1404" y1="31.8432" x2="628.1404" y2="181.7558">
			<stop  offset="0" style="stop-color:#FF00FF"/>
			<stop  offset="1" style="stop-color:#662D91"/>
		</linearGradient>
		<path style="fill:url(#SVGID_00000179620976161424993940000006754349525285059210_);" d="M611.2,192.4H584l23-109.9h-38.7
			l4.6-22.1h115c-18.2,24.5-53.8,22.1-53.8,22.1L611.2,192.4z"/>
	</g>
</g>
</svg>
